<svg xmlns="http://www.w3.org/2000/svg" width="40" height="40" viewBox="0 0 80 80">
  <g id="Rectangle_1" data-name="Rectangle 1" transform="translate(6 6)" fill="#4f4f4f" stroke="#78a9ff" stroke-width="4">
    <rect width="68" height="68" stroke="none"/>
    <rect width="68" height="68" fill="none"/>
  </g>
  <g id="Rectangle_6" data-name="Rectangle 6" transform="translate(16 14)" fill="#fff" stroke="#b5d1ff" stroke-width="1">
    <rect width="22" height="28" stroke="none"/>
    <rect x="0.5" y="0.5" width="21" height="27" fill="none"/>
  </g>
  <rect id="Rectangle_3" data-name="Rectangle 3" width="18" height="5" transform="translate(18 17)" fill="#33eb2c"/>
  <rect id="Rectangle_4" data-name="Rectangle 4" width="18" height="5" transform="translate(18 28)" fill="#ff4930"/>
  <rect id="Rectangle_5" data-name="Rectangle 5" width="18" height="5" transform="translate(18 34)" fill="#33eb2c"/>
  <g id="Rectangle_8" data-name="Rectangle 8" transform="translate(44 44)" fill="#fff" stroke="#b5d1ff" stroke-width="1">
    <rect width="22" height="23" stroke="none"/>
    <rect x="0.5" y="0.5" width="21" height="22" fill="none"/>
  </g>
  <rect id="Rectangle_2" data-name="Rectangle 2" width="18" height="5" transform="translate(46 53)" fill="#ff4930"/>
  <rect id="Rectangle_7" data-name="Rectangle 7" width="18" height="5" transform="translate(46 59)" fill="#33eb2c"/>
  <line id="Line_1" data-name="Line 1" x2="16.5" transform="translate(38 27.5)" fill="none" stroke="#b5d1ff" stroke-linecap="square" stroke-width="1"/>
  <line id="Line_2" data-name="Line 2" y2="15.5" transform="translate(55 27)" fill="none" stroke="#b5d1ff" stroke-width="1"/>
  <g id="Polygon_1" data-name="Polygon 1" transform="matrix(-1, 0.01, -0.01, -1, 57.5, 45.0)" fill="#b5d1ff">
    <path d="M 4.249997615814209 5.5 L 0.7500025033950806 5.5 L 2.5 1.300006031990051 L 4.249997615814209 5.5 Z" stroke="none"/>
    <path d="M 2.5 2.600012063980103 L 1.500005006790161 5 L 3.499994993209839 5 L 2.5 2.600012063980103 M 2.5 0 L 5 6 L 0 6 L 2.5 0 Z" stroke="none" fill="#b5d1ff"/>
  </g>
</svg>
